[img]http://leetleech.org/images/24613407701974396583.jpg[/img]

[b]The Assassin Next Door (2009) DVDRip XviD-SKITTLES[/b]

[img]http://leetleech.org/images/39185456263711143641.png[/img]

Video
ID                               : 0
Format                           : MPEG-4 Visual
Format profile                   : Advanced Simple@L5
Format settings, BVOP            : Yes
Format settings, QPel            : No
Format settings, GMC             : No warppoints
Format settings, Matrix          : Default (H.263)
Muxing mode                      : Packed bitstream
Codec ID                         : XVID
Codec ID/Hint                    : XviD
Duration                         : 1h 49mn
Bit rate                         : 770 Kbps
Width                            : 640 pixels
Height                           : 272 pixels
Display aspect ratio             : 2.35:1
Frame rate                       : 23.976 fps
Color space                      : YUV
Chroma subsampling               : 4:2:0
Bit depth                        : 8 bits
Scan type                        : Progressive
Bits/(Pixel*Frame)               : 0.184
Stream size                      : 602 MiB (85%)
Writing library                  : XviD 1.2.1 (UTC 2008-12-04)

Audio
ID                               : 1
Format                           : MPEG Audio
Format version                   : Version 1
Format profile                   : Layer 3
Mode                             : Joint stereo
Codec ID                         : 55
Codec ID/Hint                    : MP3
Duration                         : 1h 49mn
Bit rate mode                    : Constant
Bit rate                         : 128 Kbps
Channel(s)                       : 2 channels
Sampling rate                    : 48.0 KHz
Video delay                      : 200ms
Stream size                      : 100 MiB (14%)
Alignment                        : Split accross interleaves
Interleave, duration             : 42 ms (1.00 video frame)
Interleave, preload duration     : 500 ms
 
http://www.imdb.com/title/tt1198153/

[img]http://leetleech.org/images/46941880339015444838.png[/img]

Olga Kurylenko	... 	Galia
Ninette Tayeb	... 	Elinor (as Ninet Tayeb)
Lior Habra	... 	Barbie's Friend
Henry David	... 	Peter
Zohar Shtrauss	... 	Elinor's Husband
Liron Levo	... 	Roni
Vladimir Friedman... 	Mishka
Yana Goor	... 	Nina
Shalom Micahelashvili...Michael

[img]http://leetleech.org/images/70187465700988366433.png[/img]

Genre:
Action | Drama

Plot:
In an old apartment building on the wrong side of the tracks,
two women, unknown to each other, live across the hall on the 
second floor...

[img]http://leetleech.org/images/64476088802225496360.png[/img]

[img]http://leetleech.org/images/80210391636939178378.png[/img]
[img]http://leetleech.org/images/80107096128610705205.png[/img]
[img]http://leetleech.org/images/07524571710787689069.png[/img]
[img]http://leetleech.org/images/98341016260012408662.png[/img]
[img]http://leetleech.org/images/47292035857566333243.png[/img]
[img]http://leetleech.org/images/41083413496803608865.png[/img]